<?xml version="1.0" encoding="UTF-8"?>
<svg id="Layer_1" xmlns="http://www.w3.org/2000/svg" version="1.1" viewBox="0 0 60 51">
  <!-- Generator: Adobe Illustrator 29.1.0, SVG Export Plug-In . SVG Version: 2.1.0 Build 142)  -->
  <defs>
    <style>
      .st0 {
        fill: #ff6e32;
      }
    </style>
  </defs>
  <path class="st0" d="M49.9,42.8s0,0,0,0h0c-1.1.5-2.7.7-4.6.3-1.8-.3-3.8-1-5.8-2-2.6-1.4-4.7-3.1-6-4.8-.5-.7-.9-1.3-1.1-1.9,0,0,0,0,0-.1,0-.1.1-.3.3-.3s0,0,0,0h0c.2,0,.5,0,.7,0,1.8.1,3.6,0,5.1-.4,1.4-.3,2.5-.8,3.4-1.4,0,0,.1,0,.2-.1,0,0,.4-.3.6-.4,1.5-1.1,2.9-2.4,4.2-3.8,1.7-1.9,3.1-4.1,4.3-6.4,0,0,0,0,0,0,0-.2.2-.5.3-.7.4-.7.8-1.5,1.3-2.2.5-.7,1.1-1.4,1.7-2,.2-.2.4-.4.6-.6,1.6-1.6,3.3-2.7,4.9-3.4.1,0,.1-.2,0-.3-1.9-.7-4-1.3-6.1-1.7-.7-.1-1.3-.2-2-.3-1.4-.2-2.8-.3-4.3-.3-.1,0-.3,0-.4,0-9.9,0-18.8,4-25.3,10.5,0,0,0,0,0,0-.3.3-.6.5-.9.6-.7.2-1.5,0-2.3-.7-.1-.1-.3-.2-.4-.4-.2-.2-2.3-2.8-2.7-3.3-.2-.3-.6-.9-.6-1-.1-.2-1.2-1.5-1.2-1.6-.2-.2-.5-.5-.8-.8,0,0-.2-.2-.3-.2,0,0-.2-.1-.3-.2,0,0,0,0,0,0-.3-.2-.6-.4-.8-.6,0,0,0,0-.1,0,0,0,0,0-.1,0-.3-.2-.6-.3-.8-.4,0,0,0,0,0,0,0,0-.1,0-.2,0,0,0-.1,0-.2,0-.8-.3-1.6-.5-2.3-.4,0,0-.2,0-.4,0C4.1,11.7,1.4,13.3,0,15.3c0,0,0,.2,0,.2.6.1,1.1.3,1.7.5.5.3,1.1.6,1.6,1,1.5,1.2,2.4,2.8,2.5,4.3,0,0,0,0,0,0,0,0,0,.2,0,.3,0,.4,0,.8,0,1.2s0,.5,0,.7c0,0,0,0,0,0,0,.7,0,1.3,0,2,0,1.4.1,2.7.3,4,.6,4,2.2,7.7,4.4,10.8.4.5.8,1,1.2,1.5.1.1.2.3.4.4,0,0,0,0,0,0,.8.9,1.6,1.7,2.5,2.5,0,0,.2.1.2.2.9.7,1.8,1.4,2.7,2,1.2.8,2.6,1.5,3.9,2.1,3,1.3,6.3,2,9.8,2s2,0,3-.2c1-.1,2-.3,3-.5,1.4-.3,2.7-.8,3.9-1.3,1.5-.6,3-1.4,4.4-2.4,1.1-.7,2.1-1.6,3.1-2.5.4-.4.8-.8,1.2-1.2,0,0,0,0,0,0,0,0,0,0,0,0,0,0,0-.1-.1-.1Z"/>
  <path class="st0" d="M56.8,23.9c0,0,0-.1-.2,0-.6.5-1.2,1.1-1.8,1.7-.4.4-.8.8-1.1,1.3,0,0,0,0,0,0,0,.3,0,.5,0,.8-.3,2.9-1.1,5.6-2.3,8-.3.7-.7,1.3-1.1,1.9-1,1.6-2.3,3.1-3.7,4.4,0,0-.2.2-.3.2-.3.3-.7.6-1,.9,1.9.3,3.5.2,4.6-.3h0s0,0,0,0c0,0,.1,0,.1.1s0,0,0,0c.2-.2.4-.5.6-.7,0,0,0,0,.1-.1,1.4-1.7,2.7-3.6,3.7-5.6,1.5-3,2.3-6.4,2.5-10,0-.3,0-.7,0-1,0-.5,0-1.1,0-1.6Z"/>
  <path class="st0" d="M47.6,10c1.4,0,2.9.1,4.3.3-.3-.4-.6-.8-1-1.3-.7-.8-1.5-1.6-2.3-2.4-.2-.1-.3-.3-.5-.4-1-.9-2.1-1.7-3.2-2.4-1.2-.7-2.4-1.4-3.7-1.9-1.3-.5-2.6-1-3.9-1.3-1-.2-1.9-.4-3-.5-1-.1-2-.2-3-.2-3.5,0-6.8.7-9.8,2-1.4.6-2.7,1.3-3.9,2.1-.6.4-1.2.8-1.7,1.2,0,0,0,.2,0,.2.8.4,1.7.9,2.5,1.6,0,0,.1,0,.2,0,1-.7,2-1.3,3-1.8,3-1.4,6.3-2.3,9.8-2.3s2,0,3,.2c1,.1,2,.3,3,.6,0,0,0,0,0,0,1.4.4,2.7.9,3.9,1.5.8.4,1.6.8,2.4,1.3.8.5,1.6,1.1,2.3,1.7.6.5,1.1,1,1.7,1.6Z"/>
</svg>